<?xml version="1.0" encoding="UTF-8" standalone="no"?>
<svg
   xmlns:dc="http://purl.org/dc/elements/1.1/"
   xmlns:cc="http://creativecommons.org/ns#"
   xmlns:rdf="http://www.w3.org/1999/02/22-rdf-syntax-ns#"
   xmlns:svg="http://www.w3.org/2000/svg"
   xmlns="http://www.w3.org/2000/svg"
   id="svg69"
   version="1.2"
   viewBox="0 0 612 792"
   height="792pt"
   width="612pt">
  <metadata
     id="metadata75">
    <rdf:RDF>
      <cc:Work
         rdf:about="">
        <dc:format>image/svg+xml</dc:format>
        <dc:type
           rdf:resource="http://purl.org/dc/dcmitype/StillImage" />
        <dc:title></dc:title>
      </cc:Work>
    </rdf:RDF>
  </metadata>
  <defs
     id="defs73" />
  <g
     id="surface681">
    <path
       id="path2"
       d="M 282.71875 463.304688 C 284.414062 463.226562 285.84375 462.769531 287.050781 461.9375 C 288.253906 461.109375 288.851562 460.160156 288.851562 459.070312 C 288.851562 458.09375 288.394531 457.613281 287.480469 457.613281 C 286.375 457.613281 285.371094 458.160156 284.457031 459.269531 C 283.527344 460.386719 282.945312 461.730469 282.71875 463.304688 M 282.628906 464.40625 C 282.628906 466.636719 283.617188 467.753906 285.613281 467.753906 C 287.339844 467.753906 289.246094 466.96875 291.332031 465.410156 C 293.410156 463.851562 295.28125 461.792969 296.960938 459.25 L 297.984375 459.785156 C 296.410156 462.574219 294.367188 464.882812 291.839844 466.714844 C 289.324219 468.542969 286.933594 469.457031 284.6875 469.457031 C 283.238281 469.457031 282.09375 469.015625 281.253906 468.132812 C 280.417969 467.246094 279.992188 466.035156 279.992188 464.503906 C 279.992188 462.292969 280.757812 460.402344 282.28125 458.832031 C 283.804688 457.261719 285.636719 456.476562 287.785156 456.476562 C 288.816406 456.476562 289.640625 456.71875 290.265625 457.210938 C 290.894531 457.710938 291.199219 458.375 291.199219 459.199219 C 291.199219 460.566406 290.328125 461.78125 288.609375 462.832031 C 286.867188 463.886719 284.886719 464.40625 282.628906 464.40625 "
       style=" stroke:none;fill-rule:nonzero;fill:rgb(89.411926%,25.881958%,55.2948%);fill-opacity:1;" />
    <path
       id="path4"
       d="M 300.175781 466.171875 C 297.8125 467.378906 296.625 468.316406 296.625 468.972656 C 296.625 469.597656 297.097656 469.914062 298.0625 469.914062 C 298.761719 469.914062 299.335938 469.6875 299.78125 469.230469 C 300.222656 468.777344 300.453125 468.191406 300.453125 467.476562 C 300.453125 467.046875 300.363281 466.617188 300.175781 466.171875 M 302.21875 465.140625 C 302.496094 465.722656 302.636719 466.269531 302.636719 466.804688 C 302.636719 467.960938 302.117188 468.988281 301.089844 469.847656 C 300.058594 470.710938 298.851562 471.148438 297.480469 471.148438 C 296.65625 471.148438 295.96875 470.941406 295.40625 470.554688 C 294.824219 470.152344 294.535156 469.679688 294.535156 469.125 C 294.535156 468.527344 294.9375 467.925781 295.726562 467.316406 C 296.503906 466.707031 297.8125 465.980469 299.640625 465.140625 L 298.6875 463.664062 C 297.507812 461.882812 296.933594 460.476562 296.933594 459.472656 C 296.933594 458.023438 297.8125 456.859375 299.601562 455.972656 C 300.683594 456.367188 301.230469 456.871094 301.230469 457.476562 C 301.230469 458.328125 300.53125 459.144531 299.15625 459.929688 L 300.515625 462.328125 L 301.597656 464.183594 C 303.136719 463.3125 304.277344 462.570312 305.054688 461.945312 C 305.851562 461.320312 306.828125 460.371094 308.015625 459.074219 L 308.992188 459.628906 C 307.25 461.828125 305 463.664062 302.21875 465.140625 "
       style=" stroke:none;fill-rule:nonzero;fill:rgb(89.411926%,25.881958%,55.2948%);fill-opacity:1;" />
    <path
       id="path6"
       d="M 317.46875 466.683594 C 318.292969 467.585938 319.28125 468.039062 320.453125 468.039062 C 321.875 468.039062 323.082031 467.476562 324.070312 466.347656 C 325.0625 465.214844 325.5625 463.84375 325.5625 462.230469 C 325.5625 461.058594 325.289062 460.117188 324.722656 459.394531 C 324.160156 458.667969 323.429688 458.308594 322.53125 458.308594 C 321.402344 458.308594 320.183594 458.910156 318.875 460.109375 Z M 317.101562 468.460938 L 316.21875 472.6875 C 316.019531 473.644531 315.929688 474.476562 315.929688 475.183594 C 315.929688 475.632812 316.03125 476.042969 316.234375 476.410156 C 315.421875 476.652344 314.8125 476.785156 314.390625 476.785156 C 313.71875 476.785156 313.386719 476.421875 313.386719 475.707031 C 313.386719 475.15625 313.515625 474.242188 313.78125 472.976562 L 317.300781 456.195312 C 316.601562 456.332031 316.019531 456.394531 315.53125 456.394531 C 314.847656 456.394531 314.328125 456.242188 313.996094 455.914062 C 313.65625 455.605469 313.386719 455.023438 313.183594 454.148438 C 313.78125 454.53125 314.660156 454.714844 315.867188 454.714844 C 317.351562 454.714844 318.777344 454.453125 320.148438 453.933594 L 319.222656 458.347656 C 320.59375 457.101562 322.015625 456.476562 323.460938 456.476562 C 324.742188 456.476562 325.8125 456.933594 326.664062 457.855469 C 327.5 458.773438 327.925781 459.914062 327.925781 461.289062 C 327.925781 463.433594 327.148438 465.28125 325.597656 466.839844 C 324.023438 468.390625 322.164062 469.167969 320.019531 469.167969 C 318.839844 469.167969 317.882812 468.929688 317.101562 468.460938 "
       style=" stroke:none;fill-rule:nonzero;fill:rgb(89.411926%,25.881958%,55.2948%);fill-opacity:1;" />
    <path
       id="path8"
       d="M 341.210938 459.453125 C 339.53125 458.402344 338.113281 457.886719 336.996094 457.886719 C 335.796875 457.886719 334.742188 458.578125 333.855469 459.984375 C 332.976562 461.378906 332.535156 463.042969 332.535156 464.960938 C 332.535156 466.5 333.054688 467.269531 334.121094 467.269531 C 335.265625 467.269531 337.476562 464.878906 340.71875 460.089844 C 340.753906 460.027344 340.917969 459.8125 341.210938 459.453125 M 340.644531 462.1875 C 339.609375 464.207031 338.34375 465.925781 336.84375 467.332031 C 335.339844 468.753906 334.023438 469.457031 332.902344 469.457031 C 332.042969 469.457031 331.355469 469.089844 330.855469 468.378906 C 330.335938 467.648438 330.09375 466.699219 330.09375 465.496094 C 330.09375 463.117188 330.855469 461.011719 332.382812 459.195312 C 333.90625 457.386719 335.660156 456.476562 337.65625 456.476562 C 338.875 456.476562 340.1875 456.832031 341.605469 457.550781 C 341.820312 456.839844 342.671875 456.484375 344.164062 456.484375 C 344.261719 456.484375 344.410156 456.492188 344.640625 456.5 C 344.183594 457.164062 343.816406 458.070312 343.589844 459.222656 L 343.371094 460.183594 C 343.144531 461.28125 343.039062 462.542969 343.039062 463.984375 C 343.039062 465.660156 343.4375 466.492188 344.261719 466.492188 C 345.125 466.492188 346.316406 465.804688 347.820312 464.425781 C 349.320312 463.054688 350.792969 461.300781 352.265625 459.175781 L 353.207031 459.789062 C 351.710938 462.304688 350.019531 464.40625 348.101562 466.089844 C 346.191406 467.765625 344.542969 468.605469 343.171875 468.605469 C 341.441406 468.605469 340.578125 467.234375 340.578125 464.488281 C 340.578125 463.921875 340.601562 463.152344 340.644531 462.1875 "
       style=" stroke:none;fill-rule:nonzero;fill:rgb(89.411926%,25.881958%,55.2948%);fill-opacity:1;" />
    <path
       id="path10"
       d="M 353.207031 469.089844 C 352.644531 469.324219 352.203125 469.457031 351.882812 469.457031 C 351.058594 469.457031 350.644531 469.105469 350.644531 468.417969 C 350.644531 468.078125 350.796875 467.199219 351.085938 465.804688 L 351.683594 462.964844 C 352.050781 461.273438 352.242188 460.011719 352.242188 459.195312 C 352.242188 458.757812 352.113281 458.390625 351.835938 458.085938 C 352.675781 457.808594 353.359375 457.667969 353.894531 457.667969 C 354.453125 457.667969 354.746094 458.015625 354.746094 458.695312 C 354.746094 459.113281 354.550781 460.21875 354.136719 462 L 353.464844 465.328125 C 354.976562 462.527344 356.5 460.359375 358.039062 458.796875 C 359.582031 457.253906 360.96875 456.476562 362.21875 456.476562 C 362.660156 456.476562 363.054688 456.597656 363.375 456.832031 C 363.699219 457.078125 363.851562 457.363281 363.851562 457.710938 C 363.851562 458.246094 363.242188 458.953125 362.023438 459.839844 C 361.71875 459.238281 361.289062 458.9375 360.726562 458.9375 C 359.699219 458.9375 358.40625 459.957031 356.816406 462.015625 C 355.847656 463.296875 354.988281 464.628906 354.273438 465.980469 C 353.539062 467.34375 353.191406 468.316406 353.191406 468.898438 Z M 353.207031 469.089844 "
       style=" stroke:none;fill-rule:nonzero;fill:rgb(89.411926%,25.881958%,55.2948%);fill-opacity:1;" />
    <path
       id="path12"
       d="M 373.152344 464.640625 C 373.382812 465.015625 373.484375 465.339844 373.484375 465.625 C 373.484375 466.367188 372.8125 467.191406 371.492188 468.097656 C 370.160156 469 368.9375 469.457031 367.859375 469.457031 C 366.882812 469.457031 366.105469 469.046875 365.496094 468.230469 C 364.898438 467.414062 364.59375 466.359375 364.59375 465.070312 C 364.59375 463.644531 364.996094 461.605469 365.785156 458.953125 L 366.347656 457.03125 L 364.308594 457.03125 C 363.449219 457.03125 362.785156 457.15625 362.265625 457.386719 C 362.734375 456.574219 363.117188 456.070312 363.421875 455.867188 C 363.726562 455.660156 364.25 455.5625 364.972656 455.5625 L 366.792969 455.5625 L 367.035156 454.765625 C 367.398438 453.59375 367.84375 452.785156 368.363281 452.339844 C 368.882812 451.902344 369.644531 451.679688 370.679688 451.679688 C 370.789062 451.679688 370.984375 451.695312 371.261719 451.707031 C 370.636719 452.472656 369.976562 453.753906 369.292969 455.5625 L 375.667969 455.5625 C 376.777344 455.5625 377.628906 455.421875 378.210938 455.148438 C 378.011719 455.921875 377.753906 456.4375 377.421875 456.679688 C 377.082031 456.914062 376.460938 457.03125 375.558594 457.03125 L 368.789062 457.03125 C 368.710938 457.289062 368.632812 457.476562 368.605469 457.59375 C 367.628906 460.742188 367.144531 463.109375 367.144531 464.710938 C 367.144531 466.480469 367.816406 467.359375 369.15625 467.359375 C 369.839844 467.359375 370.601562 467.085938 371.425781 466.535156 C 372.238281 465.972656 372.8125 465.339844 373.152344 464.640625 "
       style=" stroke:none;fill-rule:nonzero;fill:rgb(89.411926%,25.881958%,55.2948%);fill-opacity:1;" />
    <path
       id="path14"
       d="M 377.816406 463.304688 C 379.507812 463.226562 380.945312 462.769531 382.148438 461.9375 C 383.347656 461.109375 383.945312 460.160156 383.945312 459.070312 C 383.945312 458.09375 383.488281 457.613281 382.570312 457.613281 C 381.476562 457.613281 380.472656 458.160156 379.554688 459.269531 C 378.621094 460.386719 378.046875 461.730469 377.816406 463.304688 M 377.726562 464.40625 C 377.726562 466.636719 378.71875 467.753906 380.714844 467.753906 C 382.433594 467.753906 384.339844 466.96875 386.429688 465.410156 C 388.503906 463.851562 390.382812 461.792969 392.058594 459.25 L 393.078125 459.785156 C 391.503906 462.574219 389.464844 464.882812 386.929688 466.714844 C 384.433594 468.542969 382.039062 469.457031 379.785156 469.457031 C 378.335938 469.457031 377.195312 469.015625 376.355469 468.132812 C 375.515625 467.246094 375.085938 466.035156 375.085938 464.503906 C 375.085938 462.292969 375.847656 460.402344 377.375 458.832031 C 378.898438 457.261719 380.726562 456.476562 382.878906 456.476562 C 383.917969 456.476562 384.742188 456.71875 385.363281 457.210938 C 385.988281 457.710938 386.292969 458.375 386.292969 459.199219 C 386.292969 460.566406 385.425781 461.78125 383.703125 462.832031 C 381.960938 463.886719 379.980469 464.40625 377.726562 464.40625 "
       style=" stroke:none;fill-rule:nonzero;fill:rgb(89.411926%,25.881958%,55.2948%);fill-opacity:1;" />
    <path
       id="path16"
       d="M 409.722656 459.453125 C 408.046875 458.402344 406.660156 457.886719 405.566406 457.886719 C 404.363281 457.886719 403.308594 458.585938 402.441406 459.992188 C 401.554688 461.390625 401.109375 463.046875 401.109375 464.960938 C 401.109375 466.5 401.644531 467.269531 402.710938 467.269531 C 403.839844 467.269531 406.039062 464.878906 409.269531 460.089844 C 409.328125 460.003906 409.484375 459.789062 409.722656 459.453125 M 409.085938 462.472656 C 407.839844 464.628906 406.523438 466.316406 405.152344 467.574219 C 403.777344 468.828125 402.558594 469.457031 401.476562 469.457031 C 400.625 469.457031 399.941406 469.097656 399.433594 468.382812 C 398.933594 467.679688 398.671875 466.722656 398.671875 465.519531 C 398.671875 463.117188 399.433594 461.003906 400.945312 459.1875 C 402.453125 457.386719 404.207031 456.476562 406.203125 456.476562 C 407.410156 456.476562 408.707031 456.839844 410.125 457.566406 L 411.421875 451.402344 C 410.703125 451.542969 410.125 451.621094 409.648438 451.621094 C 408.949219 451.621094 408.429688 451.460938 408.109375 451.140625 C 407.761719 450.816406 407.5 450.226562 407.304688 449.347656 C 407.878906 449.726562 408.769531 449.914062 409.972656 449.914062 C 411.449219 449.914062 412.882812 449.652344 414.273438 449.132812 L 411.628906 461.667969 C 411.347656 463.066406 411.195312 464.261719 411.195312 465.253906 C 411.195312 466.5625 411.589844 467.21875 412.378906 467.21875 C 413.140625 467.21875 414.4375 466.351562 416.226562 464.640625 C 418.019531 462.921875 419.519531 461.136719 420.722656 459.257812 L 421.695312 459.851562 C 420.28125 462.339844 418.492188 464.558594 416.34375 466.511719 C 414.207031 468.472656 412.503906 469.457031 411.222656 469.457031 C 409.609375 469.457031 408.78125 468.222656 408.78125 465.75 C 408.78125 464.730469 408.886719 463.644531 409.085938 462.472656 "
       style=" stroke:none;fill-rule:nonzero;fill:rgb(89.411926%,25.881958%,55.2948%);fill-opacity:1;" />
    <path
       id="path18"
       d="M 421.296875 463.304688 C 422.976562 463.226562 424.421875 462.769531 425.617188 461.9375 C 426.820312 461.109375 427.410156 460.160156 427.410156 459.070312 C 427.410156 458.09375 426.976562 457.613281 426.058594 457.613281 C 424.945312 457.613281 423.941406 458.160156 423.023438 459.269531 C 422.097656 460.386719 421.515625 461.730469 421.296875 463.304688 M 421.195312 464.40625 C 421.195312 466.636719 422.199219 467.753906 424.183594 467.753906 C 425.921875 467.753906 427.8125 466.96875 429.898438 465.410156 C 431.972656 463.851562 433.863281 461.792969 435.527344 459.25 L 436.558594 459.785156 C 434.980469 462.574219 432.933594 464.882812 430.417969 466.714844 C 427.902344 468.542969 425.503906 469.457031 423.253906 469.457031 C 421.804688 469.457031 420.660156 469.015625 419.820312 468.132812 C 418.984375 467.246094 418.570312 466.035156 418.570312 464.503906 C 418.570312 462.292969 419.328125 460.402344 420.84375 458.832031 C 422.367188 457.261719 424.195312 456.476562 426.34375 456.476562 C 427.382812 456.476562 428.207031 456.71875 428.832031 457.210938 C 429.457031 457.710938 429.761719 458.375 429.761719 459.199219 C 429.761719 460.566406 428.90625 461.78125 427.167969 462.832031 C 425.429688 463.886719 423.445312 464.40625 421.195312 464.40625 "
       style=" stroke:none;fill-rule:nonzero;fill:rgb(89.411926%,25.881958%,55.2948%);fill-opacity:1;" />
    <path
       id="path20"
       d="M 446.378906 465.148438 C 449.277344 459.367188 451.839844 456.476562 454.050781 456.476562 C 455.027344 456.476562 455.5 457.136719 455.5 458.472656 C 455.5 459.042969 455.300781 460.324219 454.875 462.328125 L 454.15625 465.792969 C 455.5625 462.984375 457.027344 460.726562 458.5625 459.027344 C 460.089844 457.332031 461.398438 456.476562 462.515625 456.476562 C 463.734375 456.476562 464.34375 457.15625 464.34375 458.507812 C 464.34375 459 464.15625 460.109375 463.796875 461.855469 L 463.429688 463.644531 C 463.199219 464.710938 463.089844 465.507812 463.089844 466.027344 C 463.089844 466.941406 463.429688 467.402344 464.113281 467.402344 C 465.652344 467.402344 468.015625 464.675781 471.21875 459.25 L 472.222656 459.789062 C 468.75 466.234375 465.703125 469.457031 463.109375 469.457031 C 461.433594 469.457031 460.609375 468.417969 460.609375 466.359375 C 460.609375 465.671875 460.761719 464.578125 461.09375 463.0625 L 461.433594 461.480469 C 461.640625 460.414062 461.765625 459.753906 461.765625 459.492188 C 461.765625 459.167969 461.585938 459 461.230469 459 C 460.363281 459 458.808594 460.636719 456.566406 463.90625 C 454.535156 466.886719 453.519531 468.589844 453.519531 469.015625 C 453.519531 469.0625 453.53125 469.148438 453.558594 469.257812 C 453.457031 469.285156 453.253906 469.328125 452.984375 469.402344 C 452.859375 469.445312 452.679688 469.464844 452.4375 469.464844 C 451.6875 469.464844 451.308594 469.132812 451.308594 468.453125 C 451.308594 468.246094 451.445312 467.621094 451.6875 466.582031 C 451.765625 466.207031 451.855469 465.8125 451.933594 465.390625 L 452.449219 462.964844 C 452.816406 461.222656 452.996094 460.171875 452.996094 459.824219 C 452.996094 459.3125 452.796875 459.0625 452.414062 459.0625 C 451.550781 459.0625 450.269531 460.53125 448.578125 463.484375 C 446.898438 466.402344 446.0625 468.148438 446.0625 468.710938 C 446.0625 468.871094 446.121094 469.023438 446.242188 469.171875 C 445.804688 469.363281 445.402344 469.457031 445.042969 469.457031 C 444.203125 469.457031 443.789062 469.027344 443.789062 468.175781 C 443.789062 468.074219 443.910156 466.957031 444.140625 464.84375 L 444.410156 462.417969 C 444.523438 461.558594 444.566406 460.765625 444.566406 460.039062 C 444.566406 459.125 444.371094 458.460938 443.976562 458.03125 C 444.902344 457.710938 445.574219 457.550781 445.957031 457.550781 C 446.65625 457.550781 447.023438 457.949219 447.023438 458.738281 C 447.023438 459.023438 446.914062 460.066406 446.734375 461.882812 Z M 446.378906 465.148438 "
       style=" stroke:none;fill-rule:nonzero;fill:rgb(89.411926%,25.881958%,55.2948%);fill-opacity:1;" />
    <path
       id="path22"
       d="M 472.882812 454.050781 L 473.046875 454.066406 C 473.582031 454.042969 474.359375 453.78125 475.363281 453.289062 C 476.390625 452.796875 477.164062 452.296875 477.746094 451.785156 C 477.378906 452.839844 476.753906 453.726562 475.855469 454.425781 C 474.496094 455.515625 473.570312 456.054688 473.097656 456.054688 C 472.773438 456.054688 472.605469 455.867188 472.605469 455.492188 C 472.605469 454.960938 472.695312 454.476562 472.882812 454.050781 M 483.597656 459.8125 C 481.785156 462.832031 479.957031 465.195312 478.09375 466.894531 C 476.25 468.605469 474.570312 469.457031 473.097656 469.457031 C 472.195312 469.457031 471.476562 469.171875 470.929688 468.617188 C 470.378906 468.066406 470.101562 467.328125 470.101562 466.421875 C 470.101562 466.082031 470.179688 465.53125 470.332031 464.785156 L 470.609375 463.527344 C 471.003906 461.710938 471.203125 460.441406 471.203125 459.707031 C 471.203125 459.269531 471.054688 458.921875 470.777344 458.648438 C 471.828125 458.417969 472.484375 458.308594 472.742188 458.308594 C 473.339844 458.308594 473.644531 458.703125 473.644531 459.492188 C 473.644531 460.082031 473.519531 460.917969 473.289062 462.015625 L 472.820312 464.246094 C 472.589844 465.320312 472.464844 466.015625 472.464844 466.332031 C 472.464844 467.277344 472.894531 467.753906 473.734375 467.753906 C 474.738281 467.753906 476.082031 466.949219 477.761719 465.347656 C 479.421875 463.738281 481.039062 461.710938 482.605469 459.25 Z M 483.597656 459.8125 "
       style=" stroke:none;fill-rule:nonzero;fill:rgb(89.411926%,25.881958%,55.2948%);fill-opacity:1;" />
    <path
       id="path24"
       d="M 492.867188 469.472656 C 493.050781 468.808594 493.144531 468.230469 493.144531 467.734375 C 493.144531 465.863281 492.71875 463.777344 491.878906 461.5 C 491.023438 459.222656 490.050781 457.496094 488.90625 456.339844 C 489.605469 456 490.226562 455.832031 490.78125 455.832031 C 491.664062 455.832031 492.5625 456.9375 493.464844 459.140625 C 494.378906 461.328125 495.015625 463.992188 495.410156 467.109375 C 496.820312 465.417969 497.976562 463.671875 498.890625 461.867188 C 499.808594 460.074219 500.324219 458.53125 500.445312 457.210938 C 501.648438 457.667969 502.246094 458.195312 502.246094 458.773438 C 502.246094 459.296875 501.683594 460.460938 500.519531 462.292969 C 499.378906 464.121094 498.128906 465.863281 496.769531 467.492188 C 496.117188 468.285156 495.566406 468.785156 495.105469 469.015625 C 494.671875 469.242188 493.921875 469.398438 492.867188 469.472656 "
       style=" stroke:none;fill-rule:nonzero;fill:rgb(89.411926%,25.881958%,55.2948%);fill-opacity:1;" />
    <path
       id="path26"
       d="M 507.339844 454.050781 L 507.492188 454.066406 C 508.039062 454.042969 508.816406 453.78125 509.820312 453.289062 C 510.832031 452.796875 511.621094 452.296875 512.183594 451.785156 C 511.835938 452.839844 511.214844 453.726562 510.3125 454.425781 C 508.941406 455.515625 508.027344 456.054688 507.535156 456.054688 C 507.214844 456.054688 507.0625 455.867188 507.0625 455.492188 C 507.0625 454.960938 507.140625 454.476562 507.339844 454.050781 M 518.054688 459.8125 C 516.246094 462.832031 514.414062 465.195312 512.550781 466.894531 C 510.695312 468.605469 509.03125 469.457031 507.554688 469.457031 C 506.652344 469.457031 505.917969 469.171875 505.371094 468.617188 C 504.824219 468.066406 504.546875 467.328125 504.546875 466.421875 C 504.546875 466.082031 504.621094 465.53125 504.789062 464.785156 L 505.054688 463.527344 C 505.449219 461.710938 505.648438 460.441406 505.648438 459.707031 C 505.648438 459.269531 505.511719 458.921875 505.234375 458.648438 C 506.273438 458.417969 506.945312 458.308594 507.199219 458.308594 C 507.796875 458.308594 508.085938 458.703125 508.085938 459.492188 C 508.085938 460.082031 507.976562 460.917969 507.734375 462.015625 L 507.277344 464.246094 C 507.035156 465.320312 506.921875 466.015625 506.921875 466.332031 C 506.921875 467.277344 507.339844 467.753906 508.191406 467.753906 C 509.195312 467.753906 510.527344 466.949219 512.203125 465.347656 C 513.859375 463.738281 515.496094 461.710938 517.046875 459.25 Z M 518.054688 459.8125 "
       style=" stroke:none;fill-rule:nonzero;fill:rgb(89.411926%,25.881958%,55.2948%);fill-opacity:1;" />
    <path
       id="path28"
       d="M 525.957031 459.453125 C 524.292969 458.402344 522.890625 457.886719 521.789062 457.886719 C 520.589844 457.886719 519.535156 458.585938 518.664062 459.992188 C 517.785156 461.390625 517.339844 463.046875 517.339844 464.960938 C 517.339844 466.5 517.875 467.269531 518.941406 467.269531 C 520.070312 467.269531 522.265625 464.878906 525.511719 460.089844 C 525.558594 460.003906 525.714844 459.789062 525.957031 459.453125 M 525.316406 462.472656 C 524.0625 464.628906 522.753906 466.316406 521.382812 467.574219 C 520.007812 468.828125 518.789062 469.457031 517.722656 469.457031 C 516.855469 469.457031 516.167969 469.097656 515.664062 468.382812 C 515.15625 467.679688 514.898438 466.722656 514.898438 465.519531 C 514.898438 463.117188 515.664062 461.003906 517.175781 459.1875 C 518.683594 457.386719 520.4375 456.476562 522.433594 456.476562 C 523.640625 456.476562 524.9375 456.839844 526.351562 457.566406 L 527.644531 451.402344 C 526.933594 451.542969 526.351562 451.621094 525.878906 451.621094 C 525.179688 451.621094 524.660156 451.460938 524.339844 451.140625 C 524 450.816406 523.730469 450.226562 523.527344 449.347656 C 524.109375 449.726562 524.992188 449.914062 526.195312 449.914062 C 527.679688 449.914062 529.109375 449.652344 530.503906 449.132812 L 527.875 461.667969 C 527.570312 463.066406 527.433594 464.261719 527.433594 465.253906 C 527.433594 466.5625 527.8125 467.21875 528.609375 467.21875 C 529.386719 467.21875 530.667969 466.351562 532.449219 464.640625 C 534.25 462.921875 535.738281 461.136719 536.945312 459.257812 L 537.9375 459.851562 C 536.503906 462.339844 534.722656 464.558594 532.574219 466.511719 C 530.4375 468.472656 528.726562 469.457031 527.453125 469.457031 C 525.832031 469.457031 525.011719 468.222656 525.011719 465.75 C 525.011719 464.730469 525.117188 463.644531 525.316406 462.472656 "
       style=" stroke:none;fill-rule:nonzero;fill:rgb(89.411926%,25.881958%,55.2948%);fill-opacity:1;" />
    <path
       id="path30"
       d="M 545.902344 459.453125 C 544.222656 458.402344 542.800781 457.886719 541.6875 457.886719 C 540.488281 457.886719 539.433594 458.578125 538.546875 459.984375 C 537.667969 461.378906 537.222656 463.042969 537.222656 464.960938 C 537.222656 466.5 537.757812 467.269531 538.808594 467.269531 C 539.953125 467.269531 542.164062 464.878906 545.410156 460.089844 C 545.445312 460.027344 545.609375 459.8125 545.902344 459.453125 M 545.332031 462.1875 C 544.300781 464.207031 543.03125 465.925781 541.535156 467.332031 C 540.03125 468.753906 538.714844 469.457031 537.589844 469.457031 C 536.730469 469.457031 536.046875 469.089844 535.546875 468.378906 C 535.027344 467.648438 534.785156 466.699219 534.785156 465.496094 C 534.785156 463.117188 535.546875 461.011719 537.070312 459.195312 C 538.59375 457.386719 540.347656 456.476562 542.34375 456.476562 C 543.566406 456.476562 544.875 456.832031 546.296875 457.550781 C 546.511719 456.839844 547.363281 456.484375 548.851562 456.484375 C 548.949219 456.484375 549.101562 456.492188 549.332031 456.5 C 548.875 457.164062 548.507812 458.070312 548.277344 459.222656 L 548.0625 460.183594 C 547.835938 461.28125 547.730469 462.542969 547.730469 463.984375 C 547.730469 465.660156 548.125 466.492188 548.949219 466.492188 C 549.816406 466.492188 551.007812 465.804688 552.511719 464.425781 C 554.007812 463.054688 555.484375 461.300781 556.957031 459.175781 L 557.898438 459.789062 C 556.402344 462.304688 554.710938 464.40625 552.789062 466.089844 C 550.882812 467.765625 549.234375 468.605469 547.863281 468.605469 C 546.144531 468.605469 545.269531 467.234375 545.269531 464.488281 C 545.269531 463.921875 545.292969 463.152344 545.332031 462.1875 "
       style=" stroke:none;fill-rule:nonzero;fill:rgb(89.411926%,25.881958%,55.2948%);fill-opacity:1;" />
    <path
       id="path32"
       d="M 32.308594 317.113281 L 41.117188 317.113281 L 41.117188 407.167969 C 41.117188 407.167969 41.117188 413.648438 46.925781 413.648438 L 94.25 413.648438 L 94.25 423.410156 L 42.78125 423.410156 C 42.78125 423.410156 32.285156 423.398438 32.285156 411.777344 C 32.285156 400.300781 32.308594 317.113281 32.308594 317.113281 "
       style=" stroke:none;fill-rule:evenodd;fill:rgb(89.411926%,25.881958%,55.2948%);fill-opacity:1;" />
    <path
       id="path34"
       d="M 44.46875 317.113281 L 53.25 317.113281 L 53.25 394.347656 C 53.25 394.347656 52.628906 400.34375 58.34375 400.328125 C 86.644531 400.300781 94.210938 400.328125 94.210938 400.328125 L 94.210938 409.980469 L 49.625 409.980469 C 49.625 409.980469 44.429688 409.585938 44.46875 404.25 C 44.503906 400.464844 44.46875 317.113281 44.46875 317.113281 "
       style=" stroke:none;fill-rule:evenodd;fill:rgb(89.411926%,25.881958%,55.2948%);fill-opacity:1;" />
    <path
       id="path36"
       d="M 56.566406 317.113281 L 65.394531 317.113281 L 65.40625 382.445312 C 65.40625 382.445312 64.902344 386.898438 69.09375 386.898438 L 94.253906 386.898438 L 94.210938 396.59375 L 60.328125 396.59375 C 60.328125 396.59375 56.566406 395.84375 56.566406 391.332031 Z M 56.566406 317.113281 "
       style=" stroke:none;fill-rule:evenodd;fill:rgb(89.411926%,25.881958%,55.2948%);fill-opacity:1;" />
    <path
       id="path38"
       d="M 68.699219 317.113281 L 77.542969 317.113281 L 77.542969 369.839844 C 77.542969 369.839844 76.980469 373.574219 80.835938 373.574219 L 94.25 373.574219 L 94.25 383.230469 L 73.835938 383.230469 C 70.195312 383.230469 68.699219 382.128906 68.699219 378.414062 Z M 68.699219 317.113281 "
       style=" stroke:none;fill-rule:evenodd;fill:rgb(89.411926%,25.881958%,55.2948%);fill-opacity:1;" />
    <path
       id="path40"
       d="M 142.695312 423.292969 L 133.878906 423.292969 L 133.929688 333.242188 C 133.929688 333.242188 133.929688 326.761719 128.113281 326.761719 C 122.671875 326.761719 80.792969 326.746094 80.792969 326.746094 L 80.792969 316.960938 L 132.265625 316.996094 C 132.265625 316.996094 142.75 317.023438 142.75 328.632812 C 142.738281 340.109375 142.695312 423.292969 142.695312 423.292969 "
       style=" stroke:none;fill-rule:evenodd;fill:rgb(89.411926%,25.881958%,55.2948%);fill-opacity:1;" />
    <path
       id="path42"
       d="M 130.527344 423.292969 L 121.746094 423.292969 L 121.773438 346.0625 C 121.773438 346.0625 122.382812 340.0625 116.664062 340.082031 C 88.394531 340.09375 80.820312 340.039062 80.820312 340.039062 L 80.835938 330.414062 L 125.402344 330.425781 C 125.402344 330.425781 130.617188 330.820312 130.574219 336.15625 C 130.539062 339.941406 130.527344 423.292969 130.527344 423.292969 "
       style=" stroke:none;fill-rule:evenodd;fill:rgb(89.411926%,25.881958%,55.2948%);fill-opacity:1;" />
    <path
       id="path44"
       d="M 118.433594 423.292969 L 109.589844 423.28125 L 109.625 357.960938 C 109.625 357.960938 110.121094 353.511719 105.929688 353.511719 C 98.429688 353.511719 80.773438 353.5 80.773438 353.5 L 80.820312 343.796875 L 114.695312 343.808594 C 114.695312 343.808594 118.46875 344.566406 118.46875 349.0625 C 118.46875 353.191406 118.433594 423.292969 118.433594 423.292969 "
       style=" stroke:none;fill-rule:evenodd;fill:rgb(89.411926%,25.881958%,55.2948%);fill-opacity:1;" />
    <path
       id="path46"
       d="M 106.28125 423.28125 L 97.453125 423.28125 L 97.488281 370.5625 C 97.488281 370.5625 98.035156 366.820312 94.1875 366.820312 L 80.773438 366.820312 L 80.773438 357.164062 L 101.1875 357.179688 C 104.835938 357.179688 106.332031 358.28125 106.332031 361.980469 C 106.332031 366.042969 106.28125 423.28125 106.28125 423.28125 "
       style=" stroke:none;fill-rule:evenodd;fill:rgb(89.411926%,25.881958%,55.2948%);fill-opacity:1;" />
    <path
       id="path48"
       d="M 232.144531 339.042969 L 241.15625 339.042969 L 241.15625 349.175781 L 232.144531 349.175781 Z M 232.144531 339.042969 "
       style=" stroke:none;fill-rule:evenodd;fill:rgb(89.411926%,25.881958%,55.2948%);fill-opacity:1;" />
    <path
       id="path50"
       d="M 232.144531 361.144531 L 241.15625 361.144531 L 241.15625 423.414062 L 232.144531 423.414062 Z M 232.144531 361.144531 "
       style=" stroke:none;fill-rule:evenodd;fill:rgb(89.411926%,25.881958%,55.2948%);fill-opacity:1;" />
    <path
       id="path52"
       d="M 551.597656 338.929688 L 560.628906 338.929688 L 560.628906 423.410156 L 551.597656 423.410156 Z M 551.597656 338.929688 "
       style=" stroke:none;fill-rule:evenodd;fill:rgb(89.411926%,25.881958%,55.2948%);fill-opacity:1;" />
    <path
       id="path54"
       d="M 291.484375 361.144531 L 273.3125 411.261719 L 255.140625 361.144531 L 244.851562 361.144531 L 267.429688 423.414062 L 279.195312 423.414062 L 301.777344 361.144531 Z M 291.484375 361.144531 "
       style=" stroke:none;fill-rule:evenodd;fill:rgb(89.411926%,25.881958%,55.2948%);fill-opacity:1;" />
    <path
       id="path56"
       d="M 206.699219 413.515625 C 203.664062 413.515625 201.363281 410.832031 201.363281 407.492188 L 201.363281 339.042969 L 192.339844 339.042969 L 192.339844 409.109375 C 192.339844 416.980469 198.019531 423.347656 205.207031 423.347656 L 228.867188 423.347656 L 228.867188 413.515625 Z M 206.699219 413.515625 "
       style=" stroke:none;fill-rule:evenodd;fill:rgb(89.411926%,25.881958%,55.2948%);fill-opacity:1;" />
    <path
       id="path58"
       d="M 377.753906 371.175781 C 374.71875 371.175781 372.417969 373.859375 372.417969 377.199219 L 372.417969 423.648438 L 363.394531 423.648438 L 363.394531 375.558594 C 363.394531 367.710938 369.078125 361.328125 376.257812 361.328125 L 385.746094 361.328125 L 385.746094 371.175781 Z M 377.753906 371.175781 "
       style=" stroke:none;fill-rule:evenodd;fill:rgb(89.411926%,25.881958%,55.2948%);fill-opacity:1;" />
    <path
       id="path60"
       d="M 308.472656 383.832031 C 311.480469 373.964844 319.753906 367.644531 328.839844 367.644531 C 337.933594 367.644531 346.195312 373.964844 349.195312 383.832031 Z M 358.632812 392.980469 L 358.632812 391.066406 C 358.632812 373.109375 345.265625 358.515625 328.839844 358.515625 C 312.421875 358.515625 299.082031 373.109375 299.082031 391.066406 C 299.082031 409.011719 312.421875 423.613281 328.839844 423.613281 C 342.699219 423.613281 354.53125 413.433594 357.78125 398.78125 L 349.042969 398.78125 C 346.039062 408.164062 337.960938 414.480469 328.839844 414.480469 C 317.773438 414.480469 308.582031 405.359375 307.492188 392.980469 Z M 358.632812 392.980469 "
       style=" stroke:none;fill-rule:evenodd;fill:rgb(89.411926%,25.881958%,55.2948%);fill-opacity:1;" />
    <path
       id="path62"
       d="M 517.046875 414.125 C 505.433594 414.125 495.96875 403.777344 495.96875 391.066406 C 495.96875 378.34375 505.433594 367.996094 517.046875 367.996094 C 528.6875 367.996094 538.152344 378.34375 538.152344 391.066406 C 538.152344 403.777344 528.6875 414.125 517.046875 414.125 M 465.820312 414.125 C 454.203125 414.125 444.738281 403.777344 444.738281 391.066406 C 444.738281 378.34375 454.203125 367.996094 465.820312 367.996094 C 477.457031 367.996094 486.921875 378.34375 486.921875 391.066406 C 486.921875 403.777344 477.457031 414.125 465.820312 414.125 M 414.605469 414.125 C 402.976562 414.125 393.507812 403.777344 393.507812 391.066406 C 393.507812 378.34375 402.976562 367.996094 414.605469 367.996094 C 426.210938 367.996094 435.679688 378.34375 435.679688 391.066406 C 435.679688 403.777344 426.210938 414.125 414.605469 414.125 M 517.046875 358.164062 C 506.238281 358.164062 496.742188 364.414062 491.433594 373.796875 C 486.132812 364.414062 476.644531 358.164062 465.820312 358.164062 C 454.992188 358.164062 445.515625 364.414062 440.21875 373.796875 C 434.902344 364.414062 425.414062 358.164062 414.605469 358.164062 C 397.972656 358.164062 384.492188 372.898438 384.492188 391.066406 L 384.492188 444.527344 L 393.597656 444.527344 L 393.597656 414.617188 C 399.011719 420.390625 406.417969 423.960938 414.605469 423.960938 C 425.414062 423.960938 434.902344 417.710938 440.21875 408.332031 C 445.515625 417.710938 454.992188 423.960938 465.820312 423.960938 C 476.644531 423.960938 486.132812 417.710938 491.433594 408.332031 C 496.742188 417.710938 506.238281 423.960938 517.046875 423.960938 C 533.683594 423.960938 547.148438 409.230469 547.148438 391.066406 C 547.148438 372.898438 533.683594 358.164062 517.046875 358.164062 "
       style=" stroke:none;fill-rule:evenodd;fill:rgb(89.411926%,25.881958%,55.2948%);fill-opacity:1;" />
    <path
       id="path64"
       d="M 571.667969 345.445312 C 572.625 345.445312 573.269531 345.042969 573.269531 344.15625 C 573.269531 343.394531 572.699219 342.910156 571.898438 342.910156 L 569.867188 342.910156 L 569.867188 345.445312 Z M 568.617188 341.746094 L 572.027344 341.746094 C 573.953125 341.746094 574.59375 343.0625 574.59375 343.976562 C 574.59375 345.347656 573.703125 346.332031 572.382812 346.414062 L 572.382812 346.464844 C 573.054688 346.714844 573.539062 347.425781 574.183594 348.5625 L 575.128906 350.214844 L 573.601562 350.214844 L 572.914062 348.890625 C 571.9375 346.976562 571.570312 346.628906 570.601562 346.628906 L 569.867188 346.628906 L 569.867188 350.214844 L 568.617188 350.214844 Z M 571.757812 339.296875 C 568.433594 339.296875 565.75 342.230469 565.75 345.839844 C 565.75 349.476562 568.433594 352.429688 571.757812 352.429688 C 575.097656 352.429688 577.796875 349.476562 577.796875 345.839844 C 577.796875 342.230469 575.097656 339.296875 571.757812 339.296875 M 571.757812 353.726562 C 567.78125 353.726562 564.578125 350.214844 564.578125 345.839844 C 564.578125 341.496094 567.78125 337.988281 571.757812 337.988281 C 575.75 337.988281 578.964844 341.496094 578.964844 345.839844 C 578.964844 350.214844 575.75 353.726562 571.757812 353.726562 "
       style=" stroke:none;fill-rule:evenodd;fill:rgb(89.411926%,25.881958%,55.2948%);fill-opacity:1;" />
    <path
       id="path66"
       d="M 564.988281 453.15625 C 565.445312 453.15625 565.761719 452.949219 565.761719 452.519531 C 565.761719 452.144531 565.492188 451.902344 565.089844 451.902344 L 564.085938 451.902344 L 564.085938 453.15625 Z M 563.476562 451.328125 L 565.152344 451.328125 C 566.101562 451.328125 566.421875 451.984375 566.421875 452.429688 C 566.421875 453.101562 565.976562 453.589844 565.339844 453.628906 L 565.339844 453.65625 C 565.660156 453.773438 565.902344 454.128906 566.21875 454.6875 L 566.675781 455.5 L 565.929688 455.5 L 565.597656 454.84375 C 565.109375 453.90625 564.925781 453.734375 564.453125 453.734375 L 564.085938 453.734375 L 564.085938 455.5 L 563.476562 455.5 Z M 565.015625 450.125 C 563.386719 450.125 562.078125 451.570312 562.078125 453.351562 C 562.078125 455.132812 563.386719 456.589844 565.015625 456.589844 C 566.664062 456.589844 567.988281 455.132812 567.988281 453.351562 C 567.988281 451.570312 566.664062 450.125 565.015625 450.125 M 565.015625 457.234375 C 563.066406 457.234375 561.480469 455.5 561.480469 453.351562 C 561.480469 451.21875 563.066406 449.484375 565.015625 449.484375 C 566.984375 449.484375 568.570312 451.21875 568.570312 453.351562 C 568.570312 455.5 566.984375 457.234375 565.015625 457.234375 "
       style=" stroke:none;fill-rule:evenodd;fill:rgb(89.411926%,25.881958%,55.2948%);fill-opacity:1;" />
  </g>
</svg>
